<?xml version="1.0" encoding="utf-8"?>
<!-- Generator: Adobe Illustrator 21.1.0, SVG Export Plug-In . SVG Version: 6.00 Build 0)  -->
<svg version="1.1" id="Ebene_1" xmlns="http://www.w3.org/2000/svg" xmlns:xlink="http://www.w3.org/1999/xlink" x="0px" y="0px"
	 viewBox="0 0 1792 1792" style="enable-background:new 0 0 1792 1792;" xml:space="preserve">
<style type="text/css">
	.st0{fill:#25D366;}
</style>
<path class="st0" d="M555,1271l78-141c-58-42-103.3-95-136-159s-49-131.7-49-203c0-80.7,20.3-155.7,61-225
	c-152.7,78-279.7,195.7-381,353C239.3,1068,381.7,1193,555,1271z M944,512c0-13.3-4.7-24.7-14-34s-20.7-14-34-14
	c-83.3,0-154.8,29.8-214.5,89.5S592,684.7,592,768c0,13.3,4.7,24.7,14,34s20.7,14,34,14s24.7-4.7,34-14s14-20.7,14-34
	c0-57.3,20.3-106.3,61-147s89.7-61,147-61c13.3,0,24.7-4.7,34-14S944,525.3,944,512z M1307,321c0,4.7-0.3,7.7-1,9
	c-70,125.3-175,314-315,566s-245.3,441-316,567l-49,89c-6.7,10.7-16,16-28,16c-8,0-52.7-23.3-134-70c-10.7-6.7-16-16-16-28
	c0-8,14.7-37,44-87c-95.3-43.3-183.2-101-263.5-173S78.7,1056.3,20,965C6.7,944.3,0,921.3,0,896s6.7-48.3,20-69
	c102-156.7,228.7-280.3,380-371s316.7-136,496-136c59.3,0,119.3,5.7,180,17l54-97c6.7-10.7,16-16,28-16c3.3,0,9.3,2,18,6
	s19,9.2,31,15.5s23,12.5,33,18.5s20.5,12.2,31.5,18.5s17.5,10.2,19.5,11.5C1301.7,300.7,1307,309.7,1307,321z M1344,768
	c0,92.7-26.3,177.2-79,253.5s-122.3,131.2-209,164.5l280-502C1341.3,714,1344,742,1344,768z M1792,896c0,23.3-6.7,46.3-20,69
	c-26,42.7-62.3,91-109,145c-100,114.7-215.8,203.7-347.5,267s-271.5,95-419.5,95l74-132c141.3-12,272.2-57.7,392.5-137
	s220.8-181.7,301.5-307c-76.7-119.3-170.7-217.3-282-294l63-112c63.3,42.7,124.2,93.7,182.5,153S1734,763.7,1772,827
	C1785.3,849.7,1792,872.7,1792,896z"/>
</svg>
